<?xml version="1.0" encoding="UTF-8"?>
<svg xmlns="http://www.w3.org/2000/svg" version="1.1" viewBox="0 0 4000 4000">
  <defs>
    <style>
      .cls-1 {
        fill: #000072;
      }

      .cls-2 {
        fill: #ff5c64;
      }

      .cls-3 {
        fill: #69f1ff;
      }

      .cls-4 {
        opacity: .3;
      }

      .cls-5 {
        fill: #f27e80;
      }

      .cls-6 {
        fill: #fff;
      }

      .cls-7 {
        fill: #8e8fb3;
      }

      .cls-8 {
        fill: #68d8ff;
      }

      .cls-9 {
        fill: #4ca9fc;
      }

      .cls-10 {
        fill: #3a3a3a;
      }

      .cls-11 {
        fill: #686868;
      }

      .cls-12 {
        opacity: .15;
      }

      .cls-13 {
        opacity: .2;
      }

      .cls-14 {
        fill: #9e9e9e;
      }

      .cls-15 {
        opacity: .5;
      }

      .cls-16 {
        fill: #e8e8e8;
      }
    </style>
  </defs>
  <!-- Generator: Adobe Illustrator 28.6.0, SVG Export Plug-In . SVG Version: 1.2.0 Build 709)  -->
  <g>
    <g id="Layer_1">
      <g>
        <g class="cls-13">
          <ellipse class="cls-1" cx="2191.56" cy="2987.12" rx="1139.59" ry="116.01"/>
        </g>
        <path class="cls-14" d="M3045.04,3003.59h-1089.7c-303.48,0-462.68-154.07-526-350.01-66.45-205.63,102.21-519.69,102.21-519.69,0,0,407.18,15.07,722.45,38.37,249.36,18.43,312.35,44.39,404.37,129.14,145.09,133.64,142.38,333.41,142.38,333.41,0,0,171.16-1.13,328.17,42.2,185.1,51.09,223.84,326.58-83.88,326.58Z"/>
        <path class="cls-7" d="M3045.03,3003.61h-1089.67c-303.51,0-462.72-154.09-526.02-350.02-55.57-171.97,53.33-419.82,90.42-496.33,7.27-14.96,11.8-23.37,11.8-23.37,0,0,355.83,13.17,659.8,33.94,21.18,1.42,42.12,2.93,62.66,4.44,249.36,18.43,312.34,44.41,404.36,129.16,145.08,133.64,142.38,333.37,142.38,333.37,0,0,77.93-.5,176.91,12.53,47.66,6.22,100.21,15.6,151.25,29.68,185.1,51.09,223.83,326.61-83.88,326.61Z"/>
        <g class="cls-12">
          <path class="cls-1" d="M2671.55,3003.61h-716.19c-303.51,0-462.72-154.09-526.02-350.02-55.57-171.97,53.33-419.82,90.42-496.33,7.27-14.96,11.8-23.37,11.8-23.37,0,0,355.83,13.17,659.8,33.94,31.83,49.9,58.36,106.98,43.18,142.61-45.87,107.94-411.77,200.28-462.76,333.24-43.36,113.11,48.48,192.14,148.92,210.34,302.36,54.88,445.52-330.77,554.19-236.78,62.84,54.34,141.51,239.66,196.67,386.38Z"/>
        </g>
        <path class="cls-11" d="M2576.55,3003.61h-621.19c-303.51,0-462.72-154.09-526.02-350.02-55.57-171.97,53.33-419.82,90.42-496.33,275.98,32.52,557.76,143.43,567.73,200.14,3.84,21.91-4.07,46.93-15.14,75.6-121.29,63.62-269.48,129.57-300.58,210.66-43.36,113.11,48.48,192.14,148.92,210.34,90.33,16.42,166.48-6.54,231.7-44.18,144.44,93.67,374.17,103.36,374.17,103.36l49.99,90.42Z"/>
        <path class="cls-6" d="M3045.03,3003.61h-90.1c38.05-56.58,83.42-171.01,22.73-356.29,47.66,6.22,100.21,15.6,151.25,29.68,185.1,51.09,223.83,326.61-83.88,326.61Z"/>
        <g class="cls-12">
          <path class="cls-1" d="M3045.03,3003.61h-90.1c38.05-56.58,83.42-171.01,22.73-356.29,17.06,2.24,34.76,4.85,52.78,7.96,53.53,37.53,136.23,92.42,146.86,209.93,2.33,25.78,35.96,34.63,50.14,12.99,14.71-22.45,27.23-54.11,28.62-97.51,46.56,97.33-3.25,222.92-211.03,222.92Z"/>
        </g>
        <path class="cls-1" d="M3146.88,2934.18c3.79.61,8.55,1.17,12.91,1.33,4.45.24,8.92.15,13.34-.05,8.84-.51,17.5-2.02,25.68-4.44,4.13-1.09,8.02-2.77,11.89-4.29,1.9-.86,3.71-1.88,5.56-2.79,1.88-.85,3.63-1.92,5.33-3.08,7.09-4.07,12.95-9.77,18.55-15.39l.75-.75c7.16-7.19,18.8-7.21,25.99-.05,7.19,7.16,7.21,18.8.05,25.99-.62.63-1.37,1.26-2.05,1.78-9.08,6.76-18.53,13.04-28.98,17.07-2.54,1.15-5.11,2.17-7.78,2.94-2.64.82-5.24,1.73-7.89,2.44-5.35,1.22-10.64,2.48-16.01,3.03-10.69,1.36-21.34,1.45-31.74.39-5.2-.58-10.35-1.32-15.43-2.41-5.18-1.07-9.9-2.32-15.41-4.2-4.77-1.63-7.32-6.82-5.69-11.6,1.46-4.28,5.79-6.77,10.1-6.07l.83.14Z"/>
        <path class="cls-1" d="M3176.55,2792.66c8.47-.63,16.3-.71,24.5-.46,8.12.27,16.29.96,24.52,2.11,8.23,1.22,16.51,3,24.85,5.46,8.32,2.61,16.68,6.06,24.9,10.73l.13.07c8.83,5.02,11.92,16.25,6.9,25.08-5.02,8.83-16.25,11.92-25.08,6.9-1.06-.6-2.11-1.36-2.99-2.12-4.56-3.98-9.92-7.7-15.86-10.98-6.03-3.17-12.48-6.02-19.25-8.45-6.79-2.37-13.82-4.42-21-6.11-7.1-1.67-14.66-3.06-21.62-3.93l-.46-.06c-5.02-.63-8.59-5.21-7.96-10.23.55-4.41,4.15-7.69,8.42-8Z"/>
        <path class="cls-6" d="M2576.55,3003.61h-621.19c-303.51,0-462.72-154.09-526.02-350.02-55.57-171.97,53.33-419.82,90.42-496.33,275.98,32.52,557.78,143.42,567.72,200.13,12.91,73.69-107.04,182.64-31.87,347.29,87.83,192.36,470.94,208.52,470.94,208.52l50,90.42Z"/>
        <g class="cls-12">
          <path class="cls-1" d="M2576.55,3003.61h-621.19c-303.51,0-462.72-154.09-526.02-350.02-55.57-171.97,53.33-419.82,90.42-496.33,275.98,32.52,557.76,143.43,567.73,200.14,3.84,21.91-4.07,46.93-15.14,75.6-121.29,63.62-269.48,129.57-300.58,210.66-43.36,113.11,48.48,192.14,148.92,210.34,90.33,16.42,166.48-6.54,231.7-44.18,144.44,93.67,374.17,103.36,374.17,103.36l49.99,90.42Z"/>
        </g>
        <path class="cls-10" d="M3045.04,3021.88h-1089.7c-146.68,0-269.12-35.36-363.9-105.08-83.8-61.65-144.2-148.32-179.51-257.6-68.07-210.63,96.46-520.86,103.5-533.97l5.4-10.05,11.4.42c4.07.15,411.12,15.34,723.12,38.41,255.04,18.85,321.01,46.98,415.41,133.93,125.05,115.18,144.73,274.81,147.75,328.75,48.33.94,185.45,6.86,315.27,42.69,99.36,27.42,167.56,119.96,155.27,210.66-4.82,35.62-36.68,151.85-244.02,151.85ZM1542.5,2152.61c-27.44,54.71-152.53,319.64-95.76,495.34,49.73,153.89,178.33,337.34,508.59,337.34h1089.7c119.9,0,197.57-44.92,207.76-120.17,8.66-63.94-37.13-145.19-128.75-170.47-152.62-42.12-321.5-41.55-323.18-41.54l-18.66.12.25-18.66c.02-1.9.62-193.43-136.48-319.71-88.51-81.52-147.43-106.17-393.32-124.35-281.75-20.83-641.34-35.23-710.15-37.89Z"/>
        <path class="cls-1" d="M3045.04,3021.88h-1089.7c-146.68,0-269.12-35.36-363.9-105.08-83.8-61.65-144.2-148.32-179.51-257.6-68.07-210.63,96.46-520.86,103.5-533.97l5.4-10.05,11.4.42c4.07.15,411.12,15.34,723.12,38.41,255.04,18.85,321.01,46.98,415.41,133.93,125.05,115.18,144.73,274.81,147.75,328.75,48.33.94,185.45,6.86,315.27,42.69,99.36,27.42,167.56,119.96,155.27,210.66-4.82,35.62-36.68,151.85-244.02,151.85ZM1542.5,2152.61c-27.44,54.71-152.53,319.64-95.76,495.34,49.73,153.89,178.33,337.34,508.59,337.34h1089.7c119.9,0,197.57-44.92,207.76-120.17,8.66-63.94-37.13-145.19-128.75-170.47-152.62-42.12-321.5-41.55-323.18-41.54l-18.66.12.25-18.66c.02-1.9.62-193.43-136.48-319.71-88.51-81.52-147.43-106.17-393.32-124.35-281.75-20.83-641.34-35.23-710.15-37.89Z"/>
        <path class="cls-7" d="M3329.02,1792.14c-.37,2.79-.78,5.63-1.19,8.37-1.28,7.96-2.79,15.64-4.71,23.01-43.13,166.02-247.3,145.9-251.18-37.78-2.74-130.72-63.16-172.29-119.88-164.33-8.78,1.23-17.47,3.66-25.84,7.09-18.75,7.73-35.95,20.72-48.98,37.18-10.98,13.9-18.98,30.37-22.5,48.34-6.59,34.12-3.89,68.28,5.35,102.45,19.44,71.99,68.06,144.02,120.65,215.51,15.05,20.49,30.41,40.84,45.51,61.24,17.15,23.1,30.78,46.65,41.16,70.53,17.7,40.66,26.07,81.96,26.16,122.16.05,35.26-6.22,69.61-18.11,101.81-56.9,154.68-242.4,260.2-471,179.7l24.24-200.46c45.14,30.32,90.69,41.35,131.03,39.79,4.71-.14,9.38-.5,13.95-1.01h.05c1.6-.18,3.2-.37,4.71-.64,60.23-8.14,105.74-43.95,115.85-81.18,32.06-117.36-131.45-318.24-183.49-431.11-96.92-210.3-16.74-406.92,155.55-474.75,23.46-9.24,48.66-16.1,75.33-20.26,14.36-2.29,29.23-3.7,44.46-4.35,11.11-.46,21.95-.46,32.47.09,229.51,11.3,328.71,247.98,310.41,398.59Z"/>
        <g class="cls-12">
          <path class="cls-1" d="M3075.46,2387.72c-56.9,154.68-242.4,260.2-471,179.7l24.24-200.46c45.14,30.32,90.69,41.35,131.03,39.79,56.3,80.29,231.74,116.98,315.72-19.03Z"/>
        </g>
        <g class="cls-12">
          <path class="cls-1" d="M2783.7,1768.4c35.39,130.87,147.6,226.64,197.02,263.57-52.6-71.47-101.17-143.52-120.65-215.49-9.24-34.18-11.93-68.35-5.31-102.44,3.49-18,11.49-34.44,22.49-48.35,18.8-23.9,46.36-40.35,74.84-44.29,56.69-7.95,117.1,33.59,119.84,164.33,3.88,183.67,208.07,203.81,251.19,37.78,1.9-7.36,3.45-15.07,4.7-23.01-30.89,33.5-111.98,96.17-171.76,50.08-84.13-64.85-12.79-212.01-122.12-290.69-83.29-59.94-296.15,38.81-250.24,208.5Z"/>
        </g>
        <path class="cls-11" d="M2891.9,1567.46c2.09,1.52,23.68-8.54,23.51-5.95-.66,11.33-1.54,34.14,10.82,66.98.13-.07.22-.09.35-.11,1.64-.72,3.24-1.34,4.91-1.88,1.44-.54,2.89-1,4.34-1.45,1.14-.35,2.33-.71,3.53-1.02,1.06-.29,2.17-.58,3.29-.84,3.12-.76,6.26-1.34,9.44-1.78,56.71-7.96,117.12,33.59,119.85,164.31,3.89,183.67,208.07,203.82,251.22,37.78,1.9-7.37,3.42-15.04,4.7-23-30.91,33.49-111.98,96.14-171.79,50.07-84.13-64.85-12.78-212.03-122.1-290.71-34.77-25-92.05-22.38-143.7,1.48-.2,2.97.24,5.12,1.64,6.12Z"/>
        <path class="cls-6" d="M2926.22,1628.49c8.39-3.45,17.06-5.88,25.86-7.08,56.71-7.96,117.12,33.59,119.85,164.31,3.89,183.67,208.07,203.82,251.22,37.78,1.9-7.37,3.42-15.04,4.7-23,.38-2.77.79-5.59,1.15-8.4,18.32-150.59-80.88-387.29-310.39-398.55-10.52-.58-21.36-.59-32.48-.12-15.22.66-30.08,2.08-44.45,4.35-12.84,11.74-42.64,53.76-45.89,92.65-.4,4.81,21.13-8.37,20.21-3.17-3.1,17.5-33.11,73.65-24.11,80.2,2.07,1.51,23.67-8.54,23.52-5.96-.65,11.34-1.57,34.12,10.8,66.97Z"/>
        <g class="cls-12">
          <path class="cls-1" d="M2891.9,1567.46c2.09,1.52,23.68-8.54,23.51-5.95-.66,11.33-1.54,34.14,10.82,66.98.13-.07.22-.09.35-.11,1.64-.67,3.25-1.29,4.91-1.88,1.44-.54,2.89-1,4.34-1.45,1.14-.35,2.33-.71,3.53-1.02,1.11-.3,2.22-.59,3.29-.84,3.12-.76,6.26-1.34,9.44-1.78,56.71-7.96,117.12,33.59,119.85,164.31,3.89,183.67,208.07,203.82,251.22,37.78,1.9-7.37,3.42-15.04,4.7-23-30.91,33.49-111.98,96.14-171.79,50.07-84.13-64.85-12.78-212.03-122.1-290.71-34.77-25-92.05-22.38-143.7,1.48-.2,2.97.24,5.12,1.64,6.12Z"/>
        </g>
        <path class="cls-1" d="M2758.86,2613.36c-52.11,0-106.26-9.59-160.44-28.68-9.53-3.36-14.53-13.8-11.18-23.34,3.36-9.53,13.79-14.54,23.33-11.18,162.56,57.27,323.43,18.58,409.83-98.56,76.58-103.84,73.22-236.98-8.78-347.44-5.68-7.66-11.41-15.32-17.13-23-89.57-119.99-182.18-244.07-157.68-370.6,12.36-63.86,75.35-113.38,137.77-108.01,26.27,2.24,112.27,22.04,115.66,182.82,1.89,89.64,52.79,127.32,95.81,132.35,45.21,5.31,99.74-23.2,119.38-98.83,19.98-76.94.41-204.1-75.64-298.28-42.43-52.54-118.96-114.08-242.9-108.89-110.61,4.64-203.88,56.14-255.91,141.29-56.74,92.86-58.04,213.92-3.55,332.15,14.45,31.35,38.46,70.84,63.88,112.65,68.26,112.27,145.63,239.52,120.69,330.9-9.56,35-43.35,67.12-88.2,83.84-65.37,24.36-140.19,13.29-205.28-30.37-8.39-5.63-10.63-16.99-5-25.38,5.63-8.39,17-10.63,25.39-5,55.19,37.02,117.92,46.68,172.12,26.47,33.49-12.48,59.27-35.71,65.68-59.19,20.8-76.18-55.42-201.53-116.66-302.25-25.98-42.73-50.52-83.09-65.85-116.35-59.67-129.49-57.65-263.09,5.57-366.54,58.5-95.74,162.59-153.61,285.6-158.77,139.23-5.86,225.18,63.37,272.9,122.46,75.02,92.91,108.99,228.8,82.58,330.46-25.17,96.93-97.99,133.1-159.04,125.97-62.17-7.28-125.9-62.02-128.13-167.92-1.86-87.9-32.58-142.9-82.19-147.13-43.83-3.75-89.92,32.96-98.74,78.51-21.42,110.65,66.27,228.14,151.08,341.76,5.75,7.7,11.48,15.39,17.19,23.07,90.57,122,94.04,275.47,8.85,390.97-44.94,60.94-108.83,104.43-184.75,125.76-33.93,9.53-69.58,14.28-106.24,14.28Z"/>
        <path class="cls-7" d="M3090.17,2979.37c-53.24,46.51-150.93,8.1-223.56-25.02-.73.41-1.46.87-2.2,1.28-77.84,45.23-215.01,71.81-310.96,35.03-215.46-82.6-138.08-389.04-90.01-439.07l28.63-265.5,8.46-78.71c341.84,102.08,323.27,437.84,323.27,437.84,0,0,7.18-1.83,19.67-3.25,35.45-4.16,113.56-5.49,191.82,45.23,36.45,23.65,61.74,50.45,78.25,78.21v.05c50.04,83.97,19.71,176.31-23.37,213.91Z"/>
        <g class="cls-12">
          <path class="cls-1" d="M3090.17,2979.37c-53.24,46.51-150.93,8.1-223.56-25.02-.73.41-1.46.87-2.2,1.28-77.84,45.23-215.01,71.81-310.96,35.03-215.46-82.6-138.08-389.04-90.01-439.07l28.63-265.5,16.19-20.22s55.34,77.66,34.21,250.22c-4.67,38.05-69.7,126.78-77.8,173.94-42.54,247.89,184.67,254.11,267.42,242.91,103.31-13.99,185.42-116.63,185.42-116.63,0,0,5.08,62.43,42.17,102.63,47.34,51.23,187.75-3.61,153.86-153.49,50.04,83.97,19.71,176.31-23.37,213.91Z"/>
        </g>
        <path class="cls-16" d="M3090.17,2979.37c-53.24,46.51-150.93,8.1-223.56-25.02-.73.41-1.46.87-2.2,1.28,18.75-27.9,48.02-78.9,53.97-132.32,2.52,17.43,11.75,63.57,41.3,95.64,47.34,51.23,187.75-3.61,153.86-153.49,1.14,1.92,2.24,3.89,3.34,5.81,2.1,3.89,4.12,7.78,5.9,11.71.91,1.92,1.74,3.84,2.61,5.81,0,0,0,.05.05.09.78,1.92,1.55,3.89,2.29,5.81.78,1.97,1.46,3.89,2.15,5.85v.09c.69,1.92,1.28,3.89,1.87,5.81.6,1.92,1.14,3.8,1.65,5.72.05.09.05.23.09.32.5,1.88.96,3.8,1.42,5.72.37,1.55.69,3.11,1.01,4.66.5,2.33.91,4.67,1.28,7,.27,1.65.55,3.25.73,4.89,8.14,60.97-16.42,117.27-47.75,144.62Z"/>
        <path class="cls-6" d="M3090.17,2979.37c-53.24,46.51-150.93,8.1-223.56-25.02-.73.41-1.46.87-2.2,1.28,27.12-40.39,76.24-128.93,45.01-203.44-29.55-70.39-52.87-92.02-65.95-110.23,35.45-4.16,113.56-5.49,191.82,45.23,146.91,95.22,112.19,242.13,54.88,292.17Z"/>
        <g class="cls-12">
          <path class="cls-1" d="M3090.17,2979.37c-53.24,46.51-150.93,8.1-223.56-25.02-.73.41-1.46.87-2.2,1.28,18.75-27.9,48.02-78.9,53.97-132.32,2.52,17.43,11.75,63.57,41.3,95.64,47.34,51.23,187.75-3.61,153.86-153.49,1.14,1.92,2.24,3.89,3.34,5.81,2.2,3.89,4.16,7.82,5.9,11.71.91,1.92,1.74,3.84,2.61,5.81,0,0,0,.05.05.09.78,1.92,1.55,3.89,2.29,5.81.78,1.97,1.46,3.89,2.15,5.85v.09c.69,1.92,1.28,3.89,1.87,5.81.6,1.92,1.14,3.8,1.65,5.72.05.09.05.23.09.32.5,1.88.96,3.8,1.42,5.72.37,1.55.69,3.11,1.01,4.66.5,2.33.91,4.67,1.28,7,.27,1.65.55,3.25.73,4.89,8.14,60.97-16.42,117.27-47.75,144.62Z"/>
        </g>
        <path class="cls-1" d="M2470.04,2557.94c-4.34,5.65-8.13,12.94-11.5,20.3-3.34,7.45-6.23,15.23-8.8,23.16-5.26,15.82-9.3,32.16-12.65,48.59-6.48,32.93-9.9,66.48-9.41,99.67.46,33.16,4.89,66.04,14.58,96.79,9.73,30.69,25.44,59.01,47.39,81.59,21.85,22.61,50.13,39.12,80.58,49.14,30.48,9.81,63.65,13.19,96.72,12.39,33.14-.82,66.41-5.83,98.68-14.21,32.16-8.52,63.76-20.3,91.64-36.72l.04-.03c5.31-3.13,11.65-3.23,16.88-.89,30.01,13.65,60.15,26.36,90.74,35.13,15.26,4.38,30.63,7.65,45.7,9.08,15.04,1.41,29.8.74,42.77-3.07,6.48-1.9,12.48-4.6,17.86-8.11,2.73-1.76,5.18-3.69,7.7-5.92l3.76-3.55,3.6-3.86c4.68-5.33,8.93-11.24,12.8-17.48,3.72-6.35,7.11-12.96,9.95-19.86,11.36-27.66,14.83-58.71,9.9-88.23-5.02-29.57-18.52-57.45-38.14-80.9-19.49-23.52-44.84-43.04-72.13-58.34-27.35-15.19-57.33-25.51-88.24-30.53-15.45-2.52-31.14-3.74-46.78-3.63-7.82.05-15.63.44-23.35,1.19-3.86.36-7.7.83-11.47,1.4l-5.59.92c-1.74.31-3.85.75-4.95,1.01h-.06c-9.93,2.35-19.88-3.81-22.21-13.74-.39-1.65-.53-3.39-.47-5,.21-4.94.18-11.15.03-16.83-.16-5.81-.46-11.66-.88-17.51-.84-11.7-2.15-23.41-3.88-35.06-3.48-23.3-8.62-46.37-15.44-68.88-13.69-45-34.14-87.88-61.61-125.7-27.36-37.89-61.64-70.55-100.64-96.48-38.98-26.02-82.53-45.2-127.86-58.83l-.07-.02c-9.68-2.91-15.16-13.11-12.25-22.79,2.91-9.68,13.11-15.16,22.79-12.25,48.26,14.51,95.23,35.11,137.67,63.43,42.45,28.2,80.11,64.05,110.01,105.48,30.04,41.37,52.23,88.01,66.98,136.52,7.36,24.28,12.88,49.07,16.62,74.14,1.85,12.54,3.26,25.14,4.18,37.83.45,6.35.78,12.71.96,19.12.15,6.54.24,12.57-.07,19.84l-22.75-18.75c2.96-.71,4.93-1.09,7.3-1.52l6.76-1.12c4.48-.67,8.93-1.22,13.37-1.64,8.89-.86,17.76-1.3,26.63-1.36,17.73-.12,35.44,1.26,52.93,4.11,34.97,5.67,69.06,17.41,100.07,34.63,7.73,4.32,15.36,8.87,22.65,13.87,3.64,2.51,7.31,4.96,10.91,7.54l10.57,8.1c13.86,11.15,26.89,23.59,38.45,37.5,23.19,27.67,39.95,61.83,46.06,98.19,6.05,36.35,1.85,74.12-12.15,108.24-3.52,8.54-7.73,16.81-12.47,24.85-4.91,7.96-10.42,15.64-16.76,22.85l-4.94,5.29-5.34,5.05c-3.72,3.31-7.84,6.56-12.13,9.32-8.59,5.61-17.99,9.78-27.51,12.57-19.14,5.57-38.36,6.06-56.47,4.41-18.17-1.73-35.57-5.53-52.38-10.33-33.62-9.66-65.15-23.07-95.87-37.02l16.92-.92c-32.04,18.82-66.2,31.38-101.06,40.66-34.92,9.05-70.75,14.48-107.04,15.38-36.22.84-73.16-2.69-108.89-14.15-17.89-5.82-34.87-13.44-51.18-22.98-16.15-9.66-31.37-21.23-44.73-34.72-13.46-13.39-25.06-28.62-34.64-44.87-9.53-16.3-16.97-33.64-22.64-51.35-11.36-35.51-15.14-72.45-14.28-108.64,1-36.25,6.57-72.02,16.45-106.56,4.91-17.28,10.96-34.24,18.47-50.72,3.83-8.21,8.02-16.3,12.8-24.2,4.82-7.9,10.13-15.61,17.65-22.68,3.68-3.46,9.47-3.28,12.94.4,3.12,3.32,3.28,8.35.59,11.84l-.33.43Z"/>
        <path class="cls-7" d="M2536.17,2447.16c-9.71,43.85-29.51,79.59-51.71,107.82-44.78,57-99.13,83.2-99.13,83.2,0,0-7.32,109.32-88.67,170.16-44.03,32.91-173.51,50.73-222.48-51.44-24.79-51.75-29.65-158.69,16.19-243.39,29.34-54.22,79.45-99.31,158.42-114.97l-41.25-210.04c248.86-53.07,364.09,98.42,328.62,258.65Z"/>
        <g class="cls-12">
          <path class="cls-1" d="M2542.43,2395.77c-.32,16.88-2.42,34.12-6.27,51.41-9.7,43.82-29.5,79.58-51.68,107.8-44.78,56.99-99.16,83.19-99.16,83.19,0,0-7.32,109.31-88.68,170.19-44,32.88-173.48,50.72-222.46-51.45-7.09-14.82-12.53-34.12-15.64-56.16.87,2.1,1.78,4.12,2.7,6.08,48.98,102.18,178.46,84.34,222.51,51.41,81.32-60.83,52-150.56,59.27-177.82,7.23-27.21,67.19-36.86,128.52-75.51,30.28-19.07,61.15-65.13,70.85-108.99,0-.05,0-.09.05-.14Z"/>
        </g>
        <path class="cls-16" d="M2439.57,2601.26c-.18.18-.32.32-.5.46-1.56,1.28-3.06,2.56-4.57,3.75-1.97,1.6-3.84,3.11-5.76,4.57-1.74,1.37-3.48,2.65-5.17,3.93-1.69,1.28-3.34,2.47-4.99,3.61-1.37,1.01-2.7,1.92-3.98,2.84-.23.18-.5.32-.73.5-1.55,1.05-3.06,2.06-4.48,3.02-14.45,9.6-24.06,14.22-24.06,14.22,0,0-7.32,109.31-88.68,170.19-44,32.88-173.48,50.72-222.46-51.45-.46-.91-.87-1.88-1.28-2.84-.46-.96-.87-1.92-1.28-2.93-1.87-4.39-3.57-9.1-5.12-14.13-.46-1.46-.91-2.97-1.37-4.48-.78-2.79-1.55-5.72-2.24-8.74-.5-2.06-.96-4.16-1.42-6.27-.18-.69-.32-1.37-.41-2.1-.46-2.1-.82-4.25-1.24-6.45v-.14c-.46-2.65-.91-5.35-1.28-8.1.87,2.1,1.78,4.12,2.7,6.08,48.98,102.18,178.46,84.34,222.51,51.41,81.32-60.83,52-150.56,59.27-177.82,1.01-3.75,2.97-7.13,5.9-10.34,33.98,32.66,37.09,55.62,90.65,31.19Z"/>
        <path class="cls-6" d="M2439.61,2601.25c-29.71,25.08-54.28,36.93-54.28,36.93,0,0-7.32,109.32-88.67,170.16-44.03,32.91-173.51,50.73-222.48-51.44-24.79-51.75-29.65-158.69,16.19-243.39,51.48-21.66,146.25-23.66,230.87,34.05,62.71,42.78,53.03,83.54,118.37,53.69Z"/>
        <g class="cls-12">
          <path class="cls-1" d="M2439.57,2601.26c-.18.18-.32.32-.5.46-1.56,1.28-3.06,2.56-4.57,3.75-1.97,1.6-3.84,3.11-5.76,4.57-1.74,1.37-3.48,2.65-5.17,3.93-1.69,1.28-3.34,2.47-4.99,3.61-1.33,1.01-2.7,1.92-3.98,2.84-.23.18-.5.32-.73.5-1.55,1.05-3.06,2.06-4.48,3.02-14.45,9.6-24.06,14.22-24.06,14.22,0,0-7.32,109.31-88.68,170.19-44,32.88-173.48,50.72-222.46-51.45-.46-.91-.87-1.88-1.28-2.84-.46-.96-.87-1.92-1.28-2.93-1.87-4.39-3.57-9.1-5.12-14.13-.46-1.46-.91-2.97-1.37-4.48-.78-2.79-1.55-5.72-2.24-8.74-.5-2.06-.96-4.16-1.42-6.27-.18-.69-.32-1.37-.41-2.1-.46-2.1-.82-4.25-1.24-6.45v-.14c-.46-2.65-.91-5.35-1.28-8.1.87,2.1,1.78,4.12,2.7,6.08,48.98,102.18,178.46,84.34,222.51,51.41,81.32-60.83,52-150.56,59.27-177.82,1.01-3.75,2.97-7.13,5.9-10.34,33.98,32.66,37.09,55.62,90.65,31.19Z"/>
        </g>
        <path class="cls-1" d="M2203.73,2170.63c32.15-6.85,65.15-11,98.55-11.08l12.53.04,12.56.7c8.37.27,16.74,1.55,25.1,2.42,16.67,2.6,33.39,5.7,49.62,11.16,32.56,10.18,63.57,27.35,89.23,50.96,25.49,23.79,44.98,53.98,56.36,86.75,11.14,32.83,15.14,67.77,12.01,101.74-.24,4.27-.75,8.5-1.37,12.71-.62,4.21-1,8.47-1.9,12.62l-2.42,12.51-3.34,12.34-3.38,12.34c-1.33,4.05-2.94,8-4.4,12l-4.52,11.96c-1.71,3.9-3.64,7.69-5.46,11.54-14.73,30.7-34.84,58.54-58.44,82.52-11.91,11.9-24.52,23.03-37.88,33.23-6.76,4.99-13.59,9.89-20.69,14.47-3.55,2.3-7.17,4.5-10.83,6.69-3.8,2.19-7.21,4.17-11.76,6.44l10.3-15.25v.06c-.27,3.15-.52,5.5-.88,8.12-.31,2.57-.68,5.1-1.1,7.59-.75,5.04-1.78,9.95-2.76,14.9-2.2,9.82-4.6,19.58-7.76,29.14-6.09,19.17-14.07,37.85-24.19,55.55-2.67,4.35-5.09,8.84-7.98,13.07l-8.84,12.6c-6.49,7.99-12.89,16.09-20.45,23.21l-5.49,5.49c-1.86,1.8-3.95,3.37-5.92,5.05-4.11,3.33-7.74,6.61-12.27,9.93-9.56,6.74-19.33,11.46-29.24,15.28-19.81,7.51-40.21,11.57-60.94,12.75-20.69,1.16-41.78-.59-62.28-6.37-20.48-5.6-40.28-15.54-57.09-29.44-8.39-6.97-15.85-14.97-22.52-23.5-6.64-8.58-12.06-17.88-16.89-27.39-9.31-19.8-14.23-39.87-17.23-59.91-2.97-20.06-3.98-40.16-3.23-60.18,1.82-39.98,10.19-79.76,26.3-116.87,8.17-18.48,18.44-36.14,30.74-52.36,12.47-16.06,26.84-30.79,43.13-42.95,16.21-12.23,33.99-22.28,52.71-29.43,18.75-7.06,38.11-11.79,57.57-14.2,5.03-.62,9.61,2.94,10.23,7.97.56,4.49-2.23,8.62-6.41,9.9l-.26.08c-17.59,5.39-34.61,11.69-50.52,19.92l-11.73,6.42-11.18,7.23c-7.23,5.09-14.37,10.27-20.86,16.21-26.37,23.22-46.39,52.88-59.68,85.57-13.53,32.63-20.47,68.3-21.46,103.94-.6,17.81.2,35.68,2.77,53.08,2.47,17.37,6.96,34.4,13.67,48.95,3.69,7.39,7.73,14.56,12.63,21.02,4.93,6.41,10.35,12.41,16.48,17.62,12.3,10.33,26.9,18.11,42.93,22.54,15.94,4.63,33.09,6.21,50.17,5.35,17.06-.86,34.26-4.18,49.86-10.11,7.75-2.95,15.1-6.67,21.01-10.85,3.09-2.28,6.51-5.35,9.76-7.96,1.62-1.39,3.36-2.65,4.89-4.14l4.52-4.57c6.28-5.84,11.59-12.68,17.07-19.34l7.47-10.66c2.46-3.57,4.51-7.45,6.81-11.16,8.67-15.17,15.67-31.47,21.04-48.38,2.79-8.42,4.9-17.07,6.85-25.71.85-4.33,1.78-8.69,2.41-13.02.37-2.17.69-4.33.94-6.46.29-2.07.52-4.43.66-5.99v-.03s.02-.18.02-.18c.6-6.7,4.69-12.26,10.28-15.07,2.58-1.29,6.08-3.26,9.18-5.06,3.17-1.9,6.35-3.84,9.49-5.86,6.29-4.06,12.39-8.45,18.46-12.91,11.97-9.15,23.26-19.13,33.9-29.74,21.06-21.4,38.69-45.94,51.51-72.66,1.58-3.35,3.29-6.65,4.78-10.04l3.89-10.4c1.27-3.48,2.69-6.9,3.85-10.41l2.9-10.72,2.94-10.71,2.11-10.94c.81-3.63,1.11-7.33,1.66-11,.55-3.67.99-7.34,1.19-11.04,2.75-29.47-.83-59.18-10.11-86.67-9.56-27.42-25.62-52.22-46.71-71.96-21.3-19.52-47.23-34.09-75.44-42.9-13.99-4.75-28.74-7.44-43.49-9.77-7.48-.74-14.88-1.94-22.44-2.15l-11.3-.64-11.36-.02c-30.32.06-60.88,3.85-91.02,10.28-9.88,2.11-19.6-4.19-21.71-14.07-2.11-9.88,4.19-19.6,14.07-21.71h0Z"/>
        <g>
          <path class="cls-7" d="M2407.4,1975.41c9.66,354.69-401.19,452.55-592.6,516.66l-247.79,31.65c-130.13-9.02-352.57-8.61-515.17-100.58-39.27-22.2-75.05-49.78-105.22-84.18-21.47-24.51-40.09-52.5-55.11-84.48-10.14-21.67-18.62-45.16-25.21-70.68-2.51-9.69-4.74-19.65-6.67-29.93-5.69-30.09-8.87-62.76-9.25-98.15-.32-30.67,9.61-137,28.21-242.34,6.32-35.87,13.64-71.63,21.92-104.22-70.19-193.16-120.43-441.32-64.14-536.22,36.61-61.71,162.32-20.53,361.6,110.42,121.08-72.88,296.51-98.64,323.5-101.99,26.97-3.55,203.24-22.7,338.72,17.41,159.97-176.84,271.29-248.3,322.23-197.77,78.34,77.71,92.09,330.52,72.7,535.13,63.77,116.04,125.7,282.94,135.63,322.84,10.36,41.63,15.68,80.36,16.62,116.44Z"/>
          <g class="cls-15">
            <path class="cls-6" d="M2256.17,1228c-12.38-79.21-34.02-143.97-67.34-177.01-50.94-50.53-162.26,20.93-322.23,197.77-135.48-40.11-311.75-20.95-338.72-17.41-26.99,3.35-202.42,29.11-323.5,101.99-199.28-130.95-324.99-172.13-361.6-110.42-23.95,40.35-28.61,108.47-20.69,188.25-15.43-100.93-14.52-189.65,14.3-238.23,36.61-61.71,162.32-20.53,361.6,110.42,121.08-72.88,296.51-98.64,323.5-101.99,26.97-3.55,203.24-22.7,338.72,17.41,159.97-176.84,271.29-248.3,322.23-197.77,40.11,39.78,63.29,125.42,73.72,226.99Z"/>
          </g>
          <path class="cls-6" d="M2407.4,1975.41c9.66,354.69-401.19,452.55-592.6,516.66l-247.79,31.65c-130.13-9.02-352.57-8.61-515.17-100.58-39.27-22.2-75.05-49.78-105.22-84.18-21.47-24.51-40.09-52.5-55.11-84.48-10.14-21.67-18.62-45.16-25.21-70.68,336.65,221.79,540.67,76.96,613.16-134.57,27.99-81.66,101.48-98.55,133.79-102.68,32.31-4.13,107.69-6.25,155.27,65.76,125.07,189.17,363.94,277.94,638.86-36.9Z"/>
          <g class="cls-12">
            <path class="cls-1" d="M2389.37,2107.18c-80.68,249.07-409.36,329.55-574.57,384.89l-247.79,31.65c-130.13-9.02-352.57-8.61-515.17-100.58-39.27-22.2-75.05-49.78-105.22-84.18-11.68-13.35-22.53-27.7-32.42-43.19,18.05,13.87,37.13,26.38,57.01,37.62,123.79,70.02,522.21,62.25,702.38,39.24,180.17-23.01,614.81-135.46,715.77-265.45Z"/>
          </g>
          <path class="cls-1" d="M1121.07,1648.95c-10.92-13.03,33.2-147.66,151.74-124.7,42.69,8.27,51.65,47.72,20.98,60.3-29.23,11.99-43.69,7.18-88.48,29.68-25.34,12.73-73.32,47.75-84.24,34.73Z"/>
          <path class="cls-1" d="M2026.57,1533.29c7.3-15.36-69.25-134.57-178.21-82.56-39.25,18.73-38,59.17-5.15,63.64,31.3,4.26,44.09-4.03,93.1,6.48,27.73,5.95,82.97,27.79,90.26,12.44Z"/>
          <path class="cls-5" d="M1032.05,1457.07c-47.7,65.96-71.99,152.82-78.13,143.82-.6-.86-1.22-1.91-1.86-3.13-13.91-25.66-44.86-130.46-56.81-225.82-1.89-15.38-3.2-29.02-3.92-41.09-1.97-32.59,0-53.88,3.97-67.85,4.95-17.08,20.03-24.03,34.64-20.35,38.83,9.85,152.66,65.7,192.49,105.68,7.1,7.1-42.64,42.78-90.39,108.74Z"/>
          <path class="cls-2" d="M1032.05,1457.07c-47.7,65.96-71.99,152.82-78.13,143.82-.6-.86-1.22-1.91-1.86-3.13,5.97-51.59,31.1-125,50.74-178.26,26.86-72.74-28.85-120.83-73.26-131.71-15.23-3.74-29.47,22.32-38.21,43.06-1.97-32.59,0-53.88,3.97-67.85,4.95-17.08,20.03-24.03,34.64-20.35,38.83,9.85,152.66,65.7,192.49,105.68,7.1,7.1-42.64,42.78-90.39,108.74Z"/>
          <path class="cls-1" d="M954.97,1622.31c-7.2,0-14.05-3.61-18.21-9.72-15.63-22.92-49.67-138.7-62.09-238.07h0c-6.71-53.75-6.49-92.08.68-117.21,7.78-26.95,32.88-41.55,59.69-34.78,41.29,10.44,158.38,67.22,202.14,111.12,4.65,4.67,13.71,17.69-2.45,37.8-4.66,5.79-11.44,12.77-20.01,21.61-17.69,18.22-41.91,43.16-65.81,76.2-26.24,36.27-45.37,79.92-58.03,108.8-14.02,31.98-18.74,42.75-33.92,44.16-.67.06-1.33.09-2,.09ZM915.89,1369.37c8.81,70.5,27.25,141.24,40.84,183.09,13.29-30.12,32.34-71.41,58.5-107.57,25.66-35.47,52.14-62.74,69.67-80.79,3.75-3.86,7.74-7.97,11.1-11.56-44.79-36.19-139.6-81.75-171.16-89.73-4.87-1.23-8.06.78-9.56,5.95-3.78,13.26-6.77,41.54.61,100.6h0Z"/>
          <path class="cls-5" d="M2066.41,1324.95c62.75,51.85,108.09,129.82,111.77,119.56.36-.98.7-2.15,1.01-3.5,7.01-28.33,10.63-137.55-1.78-232.85-2.04-15.36-4.19-28.89-6.53-40.75-6.29-32.03-13.55-52.15-20.9-64.67-9.08-15.29-25.43-18.23-38.64-10.99-35.11,19.3-131.25,101.96-159.75,150.67-5.09,8.66,52.02,30.69,114.82,82.53Z"/>
          <path class="cls-2" d="M2066.41,1324.95c62.75,51.85,108.09,129.82,111.77,119.56.36-.98.7-2.15,1.01-3.5-18.75-48.43-61.53-113.17-93.92-159.78-44.28-63.65-2.45-124.2,37.81-145.89,13.8-7.45,34.13,14.19,47.81,32.07-6.29-32.03-13.55-52.15-20.9-64.67-9.08-15.29-25.43-18.23-38.64-10.99-35.11,19.3-131.25,101.96-159.75,150.67-5.09,8.66,52.02,30.69,114.82,82.53Z"/>
          <path class="cls-1" d="M2176.23,1466.3c-12.3,0-20.15-9.96-39.56-34.61-19.51-24.77-48.99-62.2-83.5-90.71-31.44-25.97-61.15-44.03-82.85-57.21-10.53-6.39-18.84-11.45-24.8-15.88-20.7-15.4-15.19-30.28-11.86-35.97,31.32-53.49,130.38-137.88,167.71-158.36,24.27-13.3,52.22-5.48,66.48,18.61,13.29,22.57,23.15,59.62,30.16,113.33h0c12.95,99.3,9.12,219.91-.25,246.03-2.73,7.61-9.3,13.12-17.15,14.4-1.53.25-2.98.38-4.38.38ZM1978.24,1239.86c4.16,2.63,9.05,5.6,13.65,8.39,21.5,13.06,53.99,32.8,87.74,60.69,34.41,28.43,63.23,63.59,83.66,89.41,2.63-43.93,2.7-117.04-6.49-187.48-7.71-59.01-17.7-85.63-24.73-97.57-2.72-4.59-6.35-5.71-10.72-3.31-28.54,15.66-108.86,83.58-143.11,129.87Z"/>
          <path class="cls-1" d="M1811.98,2483.64c51.15-21.62,103.21-39.2,154.22-58.77,51.05-19.39,101.6-39.49,149.91-63.74,12.01-6.16,24.05-12.28,35.69-19.03,11.88-6.39,23.17-13.64,34.65-20.61,22.39-14.7,44.53-29.86,64.57-47.33l7.67-6.38c2.47-2.21,4.85-4.52,7.28-6.77l14.49-13.61,13.55-14.45c2.22-2.44,4.61-4.74,6.7-7.28l6.23-7.65c17.21-19.99,31.17-42.32,43.52-65.31l8.48-17.66c.7-1.48,1.45-2.93,2.1-4.42l1.72-4.58,3.46-9.16,3.47-9.15c.56-1.53,1.2-3.04,1.71-4.59l1.32-4.72,5.3-18.86,1.33-4.71.93-4.82,1.81-9.65c1.09-6.45,2.69-12.81,3.4-19.34l1.95-19.59.99-9.79.14-9.88.32-19.76c.16-3.29,0-6.59-.28-9.89l-.65-9.9-1.27-19.81c-.8-6.59-1.84-13.16-2.73-19.74l-2.82-19.74-4.21-19.58-4.19-19.58-2.54-9.14-2.95-9.49c-8.3-25.53-17.81-51.22-27.6-76.66-9.85-25.46-20.08-50.81-30.83-75.91-21.44-50.21-44.46-99.78-70.37-147.24l-2.81-5.15.54-5.84c7.21-78.42,9.51-157.5,5.82-236-1.98-39.22-5.39-78.34-11.44-116.79-6.02-38.37-14.51-76.44-28.37-111.21-6.9-17.33-15.59-33.57-26.18-46.91-1.25-1.77-2.7-3.23-4.1-4.75l-2.1-2.29c-.7-.79-1.41-1.57-2-2-1.26-1.01-2.37-2.29-3.73-3.04l-1.92-1.35c-.66-.4-1.38-.69-2.05-1.06-5.43-2.81-11.81-4.18-19.22-3.94-14.89.43-32.03,6.95-48.21,15.19-16.32,8.4-32.21,18.98-47.65,30.31-30.88,22.85-59.96,49.18-88.11,76.47-28.11,27.4-55.19,56.1-81.69,85.38l-8.45,9.33-12.3-3.51c-26.13-7.45-53.12-12.76-80.46-16.57-27.36-3.79-55.14-5.68-82.96-6.75-27.84-1.01-55.8-.83-83.72.35-27.87,1.17-55.97,3.27-83.24,6.62-27.22,3.7-54.96,8.67-82.22,14.57-27.32,5.88-54.43,12.74-81.11,20.72-26.65,8.03-53.06,16.85-78.58,27.4-25.5,10.57-50.29,22.49-73.69,36.28l-11.08,6.52-10.59-6.95c-33.01-21.68-66.44-42.64-100.54-62.08-34.11-19.33-68.87-37.5-104.5-51.84-17.79-7.09-35.82-13.32-53.72-17.34-17.72-3.9-35.93-5.89-50.4-2.57-7.21,1.63-13,4.55-17.52,8.61-.55.53-1.17.98-1.71,1.54l-1.51,1.78c-1.12,1.06-1.87,2.57-2.83,3.86-.46.56-.95,1.5-1.43,2.43l-1.45,2.74c-.98,1.82-2.01,3.59-2.77,5.62-6.89,15.54-11.2,33.44-13.52,51.93-4.66,37.12-3.3,76.08.52,114.72,3.82,38.73,10.35,77.43,18.3,115.88,16.17,76.89,38.28,152.83,64.99,226.9l2.03,5.62-1.46,5.76c-13.24,52.4-22.92,106.22-31.09,160.18-4.05,27-7.62,54.1-10.73,81.22-3.08,27.08-5.83,54.36-7.41,81.12-.41,6.7-.63,13.25-.64,19.39.07,6.68.25,13.36.52,20.02.56,13.33,1.57,26.61,3.08,39.81,3.02,26.39,8.05,52.44,15.5,77.67,14.78,50.48,39.91,97.51,74.91,136.31,34.83,38.98,78.76,69.6,126.67,92.48,48.02,22.88,99.73,38.57,152.46,49.98,52.79,11.49,106.79,18.05,161.09,23.55l81.74,8.46c27.35,2.93,54.8,6.08,82.22,10.72,4.87.82,8.15,5.44,7.33,10.31-.72,4.27-4.35,7.32-8.52,7.45h-.04c-54.99,1.82-110.27,1.86-165.73-1.83-55.41-3.69-110.89-10.99-165.79-22.67-54.83-11.76-109.27-28.06-160.8-52.49-51.39-24.41-99.74-57.73-138.5-100.94-38.96-42.97-67.05-95.47-83.26-150.58-8.2-27.57-13.68-55.77-16.97-84.07-1.65-14.15-2.74-28.34-3.37-42.51-.31-7.09-.51-14.17-.6-21.25-.01-7.62.24-14.84.65-21.88,1.61-28.21,4.35-55.74,7.43-83.37,3.11-27.59,6.68-55.1,10.74-82.55,8.21-54.91,17.9-109.64,31.53-164.06l.57,11.39c-27.47-75.73-50.17-153.08-66.96-232.08-8.25-39.53-15.1-79.46-19.18-120.02-4.04-40.53-5.77-81.72-.63-123.75,2.65-20.97,7.41-42.32,16.61-63.24,1.03-2.63,2.44-5.2,3.81-7.77l2.06-3.86c.67-1.27,1.34-2.55,2.35-4,1.9-2.78,3.62-5.64,5.96-8.19l3.37-3.87c1.19-1.23,2.5-2.37,3.77-3.54,10.26-9.32,23.07-15.16,35.27-17.89,12.28-2.8,24.15-3.13,35.41-2.4,11.27.77,22.16,2.44,32.63,4.81,20.99,4.69,40.72,11.54,59.93,19.14,38.33,15.36,74.35,34.16,109.55,54.01,35.14,19.95,69.28,41.27,102.89,63.25l-21.66-.43c51.22-30.29,105.99-51.49,161.53-68.13,27.79-8.36,55.85-15.52,84.11-21.66,28.32-6.13,56.57-11.41,85.72-15.26,29.19-3.52,57.85-5.56,86.8-6.72,28.9-1.15,57.85-1.27,86.85-.16,57.93,2.15,116.26,8.93,173.44,25.37l-20.74,5.83c27.02-29.72,54.7-58.92,83.7-87.06,29.09-28.05,59.23-55.29,92.46-79.78,16.68-12.17,34.05-23.76,53.18-33.56,9.54-4.92,19.65-9.27,30.35-12.84,10.71-3.53,22.26-6.19,34.83-6.56,12.46-.43,26.3,2,38.54,8.43,1.51.81,3.07,1.58,4.52,2.47l4.23,2.89c2.9,1.87,5.28,4.2,7.81,6.41,1.34,1.15,2.31,2.21,3.27,3.27l2.95,3.21c1.97,2.14,3.97,4.28,5.63,6.56,14.15,17.92,24.11,37.37,31.94,56.99,15.53,39.37,24.19,79.65,30.46,119.89,6.23,40.27,9.63,80.63,11.57,120.96,3.59,80.67,1.04,161.23-6.52,241.42l-2.27-10.98c26.74,49.27,50.01,99.76,71.69,150.85,10.86,25.54,21.19,51.28,31.14,77.19,9.91,25.96,19.48,51.94,28.14,78.79l3.15,10.24,2.95,10.76,4.43,20.81,4.4,20.81,3,21.14c.95,7.06,2.03,14.09,2.85,21.16l1.34,21.4.66,10.7c.28,3.56.44,7.13.27,10.73l-.39,21.52-.21,10.76-1.09,10.75-2.21,21.49c-.81,7.15-2.54,14.21-3.77,21.31l-2.04,10.64-1.05,5.31-1.47,5.22-5.92,20.87-1.49,5.21c-.57,1.72-1.26,3.39-1.89,5.09l-3.86,10.15-3.87,10.14-1.94,5.07c-.73,1.66-1.55,3.27-2.32,4.9l-9.44,19.54c-13.67,25.42-29.24,49.97-48.01,71.73l-6.84,8.33c-2.3,2.76-4.86,5.26-7.28,7.9l-14.74,15.62-15.63,14.63c-2.62,2.42-5.19,4.9-7.86,7.26l-8.21,6.82c-21.56,18.66-45,34.65-68.64,50.07-12.06,7.3-23.98,14.88-36.37,21.52-12.2,7.03-24.72,13.36-37.22,19.73-25.15,12.37-50.55,24.16-76.5,34.4-12.89,5.35-25.97,10.11-38.97,15.1-13.12,4.6-26.24,9.25-39.43,13.52-52.77,17.32-106.21,31.39-159.59,44.4l-.07.02c-4.79,1.17-9.62-1.77-10.79-6.56-1.05-4.32,1.23-8.66,5.2-10.34Z"/>
          <path class="cls-16" d="M1771.26,2068.46s10.49,81.85-63.28,86.88c-52.26,3.59-68.47-37.73-69.69-41.07-.37,3.54-5.67,47.62-57.16,57.28-72.7,13.67-83.12-68.18-83.12-68.18l122.47-123.44,1.25-.16,149.53,88.7Z"/>
          <path class="cls-6" d="M1770.59,2069.1s-15.93,65.33-73.37,57.93c-65.39-8.42-67.27-84.9-67.27-84.9l-2.34.29s17.1,74.57-44.17,98.91c-53.82,21.39-85.43-37.97-85.43-37.97,0,0-33.45-137.83,118.14-157.19,151.59-19.36,154.44,122.92,154.44,122.92Z"/>
          <g class="cls-12">
            <path class="cls-1" d="M1765.23,2083.91c-8.52,18.8-28.41,48.23-67.98,43.11-65.43-8.41-67.32-84.9-67.32-84.9l-2.31.29s17.11,74.6-44.19,98.94c-37.04,14.71-63.59-8.84-76.53-24.95,10.83-.39,22.35-2.71,34.61-7.56,101.18-40.21,75.77-141.14,75.77-141.14l3.88-.5s.27,104.09,108.27,118.03c13.24,1.7,25.13,1.08,35.8-1.33Z"/>
          </g>
          <path class="cls-1" d="M1507.18,2098.48c2.28,2.68,5.21,6.13,8.07,8.94,2.82,2.99,5.89,5.67,8.92,8.25,6.14,5.05,12.66,9.09,19.23,11.48,6.55,2.55,13.1,3.28,19.7,2.95,3.33-.74,6.66-.76,10.01-2.2,1.66-.63,3.38-.96,5.05-1.67l4.98-2.37c13.31-6.31,22.48-17.18,28.12-31.37,2.81-7.06,4.54-14.96,5.49-23.1.56-4.07.73-8.24.89-12.42.1-4.07.05-8.66-.17-12.22l-.06-.92c-.36-5.73,3.99-10.67,9.72-11.03,4.89-.31,9.2,2.82,10.59,7.3,1.68,5.44,2.67,10.01,3.46,15.11.82,4.99,1.23,10.04,1.37,15.15.18,10.19-.59,20.74-3.74,31.11-5.43,20.77-21.04,41-41.14,50.58l-7.44,3.64c-2.53,1.13-5.33,1.86-8.02,2.71-5.28,1.94-11.26,2.38-16.98,3.17-11.82.62-23.76-2.1-34.02-7.02-10.27-5.03-18.83-12.07-25.76-19.93-3.44-3.96-6.56-8.11-9.32-12.43-2.83-4.42-5.05-8.62-7.31-13.94-2.24-5.28.22-11.37,5.49-13.62,4.28-1.82,9.09-.55,11.96,2.81l.89,1.05Z"/>
          <path class="cls-1" d="M1780.69,2071.56c-.87,5.71-1.99,10.34-3.63,15.31-1.6,4.88-3.6,9.66-5.95,14.35-4.76,9.34-11.32,18.27-20.02,25.69-8.72,7.3-19.62,12.9-31.22,15.22-5.74.65-11.65,1.7-17.24,1.13-2.81-.16-5.71-.17-8.44-.64l-8.11-1.68c-21.85-4.3-41.98-20.04-52.38-38.82-5.63-9.27-8.98-19.3-11.33-29.22-1.13-4.99-1.98-9.98-2.42-15.02-.49-5.14-.67-9.81-.38-15.5.29-5.73,5.17-10.15,10.9-9.87,4.89.24,8.83,3.83,9.7,8.44l.17.91c.66,3.51,1.76,7.97,2.86,11.89,1.19,4.01,2.38,8.01,3.94,11.82,2.94,7.66,6.57,14.88,11.04,21.03,8.97,12.35,20.55,20.61,35.01,23.43l5.41,1.06c1.8.27,3.54.16,5.31.36,3.61.57,6.84-.24,10.25-.34,6.47-1.31,12.64-3.65,18.35-7.74,5.78-3.94,11.09-9.48,15.79-15.89,2.3-3.25,4.61-6.6,6.6-10.2,2.08-3.43,4.06-7.5,5.61-10.66l.6-1.22c2.52-5.15,8.75-7.28,13.89-4.75,4.17,2.05,6.36,6.53,5.69,10.89Z"/>
          <g>
            <path class="cls-1" d="M1700.09,1993.1c2.25,17.86-19.07,36.58-39.12,49.99-20.97,14.03-46.03,17.18-69.82,8.78-22.74-8.03-48.03-20.89-50.27-38.75-6.77-53.89,152.44-73.9,159.21-20.01Z"/>
            <g class="cls-15">
              <path class="cls-6" d="M1650.72,1988.57c.65,5.15-8.02,10.86-16.11,15.02-8.47,4.35-18.41,5.6-27.68,3.48-8.87-2.03-18.68-5.41-19.33-10.57-1.95-15.54,61.17-23.47,63.13-7.94Z"/>
            </g>
          </g>
          <ellipse class="cls-10" cx="1286.11" cy="1988.34" rx="123.6" ry="129.68" transform="translate(-241.55 178.97) rotate(-7.28)"/>
          <ellipse class="cls-6" cx="1305.75" cy="2016.11" rx="52.31" ry="54.88" transform="translate(-244.93 181.69) rotate(-7.28)"/>
          <ellipse class="cls-6" cx="1241.55" cy="1940.32" rx="30.16" ry="31.64" transform="translate(-235.86 172.96) rotate(-7.28)"/>
          <ellipse class="cls-10" cx="1948.63" cy="1903.71" rx="123.6" ry="129.68" transform="translate(-225.5 262.24) rotate(-7.28)"/>
          <ellipse class="cls-6" cx="1968.27" cy="1931.48" rx="52.31" ry="54.88" transform="translate(-228.82 264.9) rotate(-7.28)"/>
          <ellipse class="cls-6" cx="1904.07" cy="1855.7" rx="30.16" ry="31.64" transform="translate(-219.79 256.23) rotate(-7.28)"/>
          <path class="cls-1" d="M953.81,2134.67c-3.21-1.3-6.97-2.69-10.57-3.96-3.59-1.37-7.27-2.59-10.97-3.77-3.66-1.25-7.37-2.39-11.14-3.41-3.76-1.01-7.42-2.28-11.19-3.24-15.05-3.94-30.15-7.68-45.48-10.39-30.59-5.55-61.55-9.47-92.71-10.24-7.78-.46-15.58.03-23.37-.1l-11.69.02c-3.9.04-7.78.44-11.68.64-7.78.51-15.57.98-23.38,1.35l-23.29,2.64c-15.63,1.25-30.86,5.06-46.4,7.37l-5.81.97-5.73,1.36-11.46,2.72c-7.64,1.85-15.33,3.55-23.03,5.27l-.61.14c-4.93,1.1-9.81-2-10.91-6.93-1.03-4.62,1.67-9.21,6.07-10.67,7.7-2.53,15.4-5.08,23.16-7.48l11.63-3.65,5.82-1.83,5.93-1.44c7.89-1.96,15.83-3.79,23.78-5.58,3.98-.84,7.92-1.96,11.95-2.56l12.07-1.94,24.19-3.81c8.12-.82,16.26-1.52,24.41-2.2,4.07-.3,8.14-.8,12.23-.93l12.26-.3c8.18-.11,16.36-.61,24.54-.2l24.54,1.01c8.17.51,16.31,1.5,24.46,2.33,8.17.67,16.23,2.29,24.33,3.49,8.11,1.2,16.1,3.05,24.1,4.84,32.06,7.43,62.99,17.7,92.5,34.31,4.4,2.48,5.95,8.05,3.48,12.45-2.28,4.05-7.19,5.69-11.39,3.99l-.64-.26Z"/>
          <path class="cls-1" d="M990.14,2253.09c-13.32.24-27.38,1.03-41.03,2.27-13.73,1.24-27.4,2.82-40.97,4.89-27.12,4.23-53.98,9.89-79.85,18.45-12.94,4.25-25.69,9.02-38.02,14.69-6.24,2.69-12.21,5.88-18.32,8.84-5.9,3.31-11.96,6.39-17.64,10.06-23.27,13.89-44.34,31.21-63.17,50.98l-.13.14c-3.49,3.66-9.28,3.8-12.94.31-3.41-3.25-3.74-8.53-.95-12.19,17.75-23.19,39.39-43.73,63.84-60.04,12.18-8.22,24.9-15.65,38.15-21.92,13.18-6.42,26.72-12.06,40.59-16.63,27.65-9.41,56.25-15.7,85.09-18.74,28.94-3.03,57.67-3.38,86.97.68,5.01.69,8.5,5.31,7.81,10.32-.63,4.53-4.47,7.82-8.9,7.9h-.52Z"/>
          <path class="cls-1" d="M2298.21,1947.87c24.38-23.5,51.75-41.21,80.9-56.46,7.29-3.75,14.57-7.54,22.11-10.74,7.54-3.2,14.93-6.79,22.67-9.49,7.68-2.86,15.31-5.86,23.09-8.41l23.5-7.15c7.81-2.44,15.86-4.02,23.8-5.97l11.95-2.79c3.99-.89,8.05-1.44,12.07-2.17,8.05-1.39,16.11-2.75,24.18-4l24.37-2.39,12.17-1.16c4.05-.43,8.14-.33,12.21-.53,8.14-.27,16.28-.49,24.42-.58l6.1-.1,6.1.31,12.18.61c8.11.37,16.22.9,24.3,1.42,5.04.32,8.86,4.66,8.54,9.7-.3,4.72-4.14,8.38-8.77,8.55l-.66.02c-7.89.27-15.76.56-23.62.69l-11.78.25-5.88.12-5.87.52c-15.62,1.67-31.32,1.81-46.76,4.53l-23.21,3.3c-7.65,1.61-15.31,3.1-22.97,4.57-3.82.79-7.68,1.38-11.46,2.32l-11.32,2.92c-7.51,2.09-15.18,3.57-22.59,5.97-29.97,8.58-58.95,20.15-87.16,33.21-14.16,6.48-27.83,13.9-41.41,21.49-3.41,1.88-6.63,4.03-10.02,5.95-3.39,1.93-6.69,3.97-9.92,6.1-3.28,2.07-6.54,4.18-9.67,6.41-3.16,2.13-6.45,4.42-9.23,6.49l-.55.41c-4.05,3.01-9.78,2.16-12.78-1.89-2.77-3.73-2.27-8.89,1-12.03Z"/>
          <path class="cls-1" d="M2299.01,2067.89c27.34-11.29,55.24-18.17,84.01-22.52,28.68-4.31,57.93-5.41,87.06-3.25,14.57.94,29.1,2.99,43.47,5.89,14.4,2.74,28.58,6.74,42.43,11.63,27.76,9.64,53.87,24.08,76.88,42.07,3.98,3.11,4.69,8.87,1.58,12.85-2.9,3.71-8.09,4.58-12,2.17l-.2-.12c-23.2-14.4-47.94-25.87-73.96-33.46-6.42-2.13-13.06-3.58-19.6-5.31-6.66-1.32-13.23-2.91-19.95-3.95-13.36-2.38-26.9-3.8-40.49-4.66-27.2-1.78-54.61-.5-81.93,2.22-13.66,1.41-27.29,3.32-40.89,5.57-13.52,2.23-27.32,5-40.28,8.11l-.5.12c-4.91,1.18-9.86-1.84-11.04-6.76-1.07-4.44,1.31-8.91,5.4-10.6Z"/>
        </g>
        <path class="cls-7" d="M1361.51,3003.61c-300.49,14.91-160.12-337.31-157.97-342.7l.04-.05s-14.22-2.24-34.16-10.34c-37.78-15.37-96.09-51.64-117.22-133.37-28.95-111.96,92.85-184.36,175.4-42.4,0,0,235.59-86.58,273.64,109.08,5.76,29.5,11.39,60.92,15.69,92.8,3.52,25.84,6.22,51.91,7.45,77.52,6.22,127.24-23.14,242.5-162.87,249.45Z"/>
        <g class="cls-12">
          <path class="cls-1" d="M1361.51,3003.61c-300.49,14.91-160.12-337.31-157.97-342.7l.04-.05s-14.22-2.24-34.16-10.34c99.52,25.66,158.29,15.6,160.44,15.23-2.61,1.88-103,76.43-59.05,190.4,34.99,90.7,231.79,81.55,253.56-101.99,6.22,127.24-23.14,242.5-162.87,249.45Z"/>
        </g>
        <path class="cls-6" d="M1516.93,2676.64c-32.7-13.49-77.71-23.23-134.88-15.78-115.76,15.05-178.46,0-178.46,0,0,0-119.1-18.84-151.39-143.7-5.99-23.19-5.53-44.68-.23-62.93,20.03-69.84,110.18-92.02,175.63,20.54,0,0,205.31-75.47,263.53,73.68,4.16,10.61,7.59,22.37,10.11,35.4,5.76,29.5,11.39,60.92,15.69,92.8Z"/>
        <g class="cls-12">
          <path class="cls-1" d="M1491.13,2548.44c-74.37-71.35-192.6-67.92-216.97-50.63-11.39,8.1,2.15,22.78-4.53,31.38-4.53,5.85-35.45-23.05-54.79-24.38-23.19-1.65-42.95,16.74-46.01,6.04-3.66-12.94,23.83-64.17-35.9-83.51-24.19-7.87-55.94,8.92-80.95,26.89,20.03-69.84,110.18-92.02,175.63,20.54,0,0,205.31-75.47,263.53,73.68Z"/>
        </g>
        <path class="cls-1" d="M1343.39,3022.34c-73.79,0-127.37-22.82-159.46-67.97-61.64-86.73-22.2-228.73-4.5-280.75-38.62-12.06-118.3-48.93-144.92-151.88-15.54-60.07,7.71-117.85,55.27-137.4,39.39-16.19,97.36-5.87,145.85,68.59,36.04-10.67,131.88-32.71,204.23,8.06,41.84,23.58,68.54,63.73,79.36,119.33,26.98,138.63,45.43,292.01-22.29,378.47-30.48,38.93-75.74,60.14-134.51,63.07-6.48.32-12.83.48-19.02.48ZM1123.25,2414.41c-7.1,0-13.69,1.36-19.56,3.77-26.13,10.74-46.12,46.61-33.76,94.39,28.76,111.22,132.17,129.48,136.56,130.2,5.48.9,10.28,4.26,13,9.1,2.72,4.84,3.12,10.67,1.04,15.82-.71,1.75-70.1,176.46-6.74,265.51,27.08,38.07,76.46,55.61,146.81,52.1,48.36-2.41,83.54-18.46,107.52-49.09,58.98-75.31,39.1-226.03,15.18-348.92-8.67-44.55-29.29-76.3-61.3-94.38-74.09-41.85-186.98-1.41-188.12-.99-8.33,3.04-17.65-.32-22.11-7.98-29.91-51.45-62.65-69.54-88.52-69.54Z"/>
        <path class="cls-1" d="M1207.73,2643.03c4.23,1.31,9.82,2.63,14.92,3.75,5.24,1.12,10.54,2.18,15.89,3.06,10.69,1.81,21.53,3.24,32.44,4.27,10.91.94,21.89,1.74,32.91,1.92,11.02.33,22.07.11,33.14-.25h.19c5.06-.17,9.29,3.79,9.46,8.85.15,4.64-3.17,8.58-7.62,9.34-11.31,1.93-22.69,3.7-34.16,4.92-11.46,1.36-23,2.1-34.59,2.67-11.59.47-23.23.53-34.93.16-5.85-.16-11.72-.52-17.63-.97-6.04-.51-11.56-.99-18.33-2.07-10-1.6-16.82-11-15.22-21,1.6-10,11-16.82,21-15.22.83.13,1.75.35,2.53.59Z"/>
        <path class="cls-1" d="M2926.63,2817.04c-.55,9.08-1.57,17.29-3.09,25.79-1.43,8.43-3.36,16.77-5.58,25.06-4.53,16.56-10.73,32.79-18.71,48.38-7.78,15.7-18.26,30.27-30.27,43.62l-9.43,9.73c-3.4,2.98-6.93,5.85-10.42,8.77l-5.29,4.34-5.71,3.76-11.53,7.49c-8.49,5.51-19.84,3.1-25.36-5.39-5.51-8.49-3.1-19.84,5.39-25.36.45-.29.91-.57,1.38-.81l1.77-.94,9.65-5.11,4.87-2.54,4.52-3.1,9.1-6.25,8.43-7.25c10.89-10.08,21.03-21.5,29.09-34.62,8.24-12.97,15.2-27,20.74-41.71,2.73-7.37,5.22-14.86,7.25-22.49,2.12-7.52,3.82-15.54,4.96-22.79l.09-.54c.78-4.99,5.46-8.4,10.44-7.62,4.68.73,7.97,4.95,7.71,9.58Z"/>
        <path class="cls-1" d="M2784.86,2660.4c-.29.16-.57.35-.83.56-.29.24-.54.47-.47.37l-.1-.03c.01-.11.09-.3.14-.45l.53-1.24,1.32-2.6c.93-1.76,1.98-3.48,3.05-5.24,2.26-3.43,4.73-6.83,7.82-10.08,3.09-3.31,6.63-6.45,12.26-9.41,2.9-1.31,6.67-2.71,11.87-2.51,2.53.09,5.41.74,7.93,1.94,1.33.56,2.39,1.3,3.52,2.06.99.62,3.09,2.65,3.94,3.91.49.68.94,1.38,1.36,2.1.39.69.61,1.22.9,1.85.59,1.31.84,2.23,1.15,3.28.53,1.97.74,3.6.87,5.11.21,2.97.13,5.44-.13,7.79-.52,4.65-1.31,8.75-2.48,12.72-2.24,7.94-5.17,15.13-9.37,22.23-2.65,4.46-8.41,5.94-12.87,3.29-3-1.78-4.65-4.97-4.6-8.23v-.52c.14-7.28.95-14.66,1.48-21.48.18-3.41.53-6.75.45-9.6-.06-1.39-.08-2.7-.22-3.46.02-.72-.7-.98,1,1.7.29.53,1.72,1.85,1.95,1.95.33.28.67.37,1.1.62.83.38,1.85.57,2.51.59,1.44-.01,1.49-.33.98-.11-1.2.21-3.64,1.78-6.11,3.48-2.47,1.78-5.15,3.86-7.86,6.07l-10.92,8.56c-4.2,2.8-9.88,1.67-12.69-2.54-2.8-4.2-1.67-9.88,2.54-12.69Z"/>
        <path class="cls-1" d="M2279.2,2724.71c1.53,12,1.76,23.2,1.04,34.99-.81,11.67-2.62,23.51-6.5,35.29-3.78,11.74-9.78,23.52-18.8,33.77-4.55,5.08-9.87,9.63-15.69,13.51-5.85,3.88-12.24,6.75-18.75,9.12l-.16.06c-9.53,3.46-20.06-1.47-23.52-11-3.46-9.53,1.47-20.06,11-23.52.9-.33,1.91-.6,2.83-.78,7.95-1.51,15.21-4.69,21.61-9.99,6.33-5.35,11.81-12.68,15.96-21.27,4.25-8.54,7.23-18.2,9.34-28.16,2.06-9.88,3.27-20.62,3.41-30.43v-.55c.08-5.05,4.23-9.09,9.28-9.02,4.62.06,8.39,3.54,8.95,7.99Z"/>
        <path class="cls-1" d="M2140.27,2710.14c-.86,10.46-.78,21.85.13,32.57.91,10.82,2.74,21.44,5.77,31.27,3,9.82,7.31,18.86,12.92,25.85,2.82,3.47,5.89,6.49,9.23,8.93,3.39,2.37,7.01,4.21,10.81,5.66,9.47,3.6,14.22,14.19,10.62,23.66-3.6,9.47-14.19,14.22-23.66,10.62-.74-.28-1.45-.6-2.13-.97l-.19-.1c-6.55-3.55-12.66-7.92-18-13.02-5.3-5.15-9.69-10.96-13.3-16.98-7.17-12.13-10.97-25.01-13.06-37.52-2.08-12.56-2.47-24.92-1.89-37.05.63-12.22,2.05-23.85,4.72-36.07,1.08-4.94,5.95-8.07,10.89-6.99,4.53.99,7.54,5.18,7.17,9.68l-.04.47Z"/>
        <path class="cls-1" d="M3017.32,2940.61c8.38,2.31,18.07,3.84,27.1,4.39,9.15.55,18.18.1,26.67-1.44,8.46-1.68,16.18-4.7,22.85-8.69,6.73-3.97,11.76-9.74,16.31-15.64l.66-.86c6.19-8.04,17.72-9.54,25.76-3.35,8.04,6.19,9.54,17.72,3.35,25.76-.49.64-1.1,1.32-1.66,1.87-8.83,8.71-18.86,16.38-30.24,20.92-11.25,4.55-22.93,6.85-34.24,7.29-11.31.28-22.25-.95-32.76-3.23-10.61-2.38-20.37-5.41-30.62-10.04-4.6-2.08-6.65-7.5-4.57-12.1,1.88-4.17,6.5-6.24,10.77-5.05l.61.17Z"/>
        <path class="cls-1" d="M3038.68,2811.67c9.54-3.02,18.49-4.93,28.12-6.24,9.54-1.24,19.38-1.72,29.58-.72,10.16.96,20.83,3.53,31.08,8.92,5.09,2.74,10,6.2,14.44,10.33,4.38,4.2,8.17,9.04,11.36,14.2l.25.4c5.34,8.64,2.67,19.97-5.97,25.31-8.64,5.34-19.97,2.67-25.31-5.97-.57-.92-1.08-1.97-1.47-2.94-1.05-2.68-2.32-5.24-3.96-7.62-1.71-2.32-3.77-4.51-6.22-6.51-4.96-3.94-11.51-7.09-18.9-9.09-7.36-2.07-15.45-3.14-23.69-3.48-8.15-.34-16.94.07-24.76,1.12l-.57.08c-5.01.67-9.62-2.84-10.29-7.85-.6-4.48,2.14-8.63,6.31-9.95Z"/>
        <g class="cls-15">
          <path class="cls-6" d="M2522.78,2779.53c13.72,67.84,83.13,133.72,175.95,99.36,71.24-26.37-54.08-47.66-107.18-103.35-36.86-38.65-81.61-59.51-68.77,3.99Z"/>
        </g>
        <g class="cls-15">
          <path class="cls-6" d="M2443.15,2277.18c-3.53,0,14.53,49.5,3.77,113.53-4.74,28.21,47.44-3.04,41.97-51.39-4.84-42.78-42.2-62.15-45.74-62.15Z"/>
        </g>
        <g>
          <path class="cls-10" d="M1133.23,2234.13c-56.41,0-100.84-12.86-132.55-38.46-101.82-82.19-97.29-220.16-85.54-295.09.25-1.6.44-2.8.54-3.56.07-.59.18-1.39.29-2.19,6.1-39.63,33.23-73.62,70.82-88.86,25.69-10.43,54.56-17.95,85.78-22.33,101.12-14.18,202.43-10,277.97,11.49,47.4,13.5,82.45,53.75,89.3,102.56l15.13,107.84c11.61,82.74-37.17,162.12-115.97,188.76-50.8,17.18-98.46,28.96-141.67,35.02-22.84,3.2-44.22,4.8-64.11,4.8ZM1189.77,1802.78c-36.74,0-75.04,2.66-113.38,8.04-28.99,4.06-55.66,10.99-79.27,20.58-28.69,11.63-49.37,37.47-53.99,67.44l-.2,1.52c-.14,1.06-.36,2.52-.67,4.48-10.84,69.08-15.42,195.95,75.66,269.48,36.74,29.66,95.82,39.03,175.62,27.83,41.51-5.82,87.5-17.21,136.68-33.84,66.31-22.42,107.35-89.27,97.58-158.96l-15.13-107.84c-5.34-38.06-32.68-69.45-69.64-79.98-43.66-12.42-96.61-18.75-153.26-18.75Z"/>
          <path class="cls-8" d="M2365.07,1870.73c1.26,56.84-10.47,119.05-49.96,175.18-72.74,103.42-237.6,119.23-369.05,113.02-90.88-4.29-168.14-63.02-198.81-145.48-5.59-15.03-9.65-30.82-11.95-47.24l-17.58-125.34c-9.44-4.26-19.1-7.78-28.85-10.63-29.9-8.68-60.98-10.77-91.14-6.54-30.16,4.23-59.46,14.79-85.82,31.37-8.6,5.43-16.91,11.47-24.81,18.16l17.58,125.34c2.3,16.42,2.75,32.72,1.51,48.7-6.8,87.72-64.91,165.44-151.11,194.57-124.67,42.14-287.52,72.31-385.91-7.1-53.42-43.13-81.81-99.68-96.24-154.67-20.2-77.28-12.83-151.47-8.51-180.92v-.03c1.25-8.53,2.26-13.29,2.26-13.29,0,0-62.21-53.84-1.52-92.04,102.56-64.5,449.92-118.52,611.84,7.58,64.2-54.37,153.94-66.96,230.62-32.35,120.97-165.79,469.79-209.43,586.14-175.64,68.89,20.02,23.86,88.9,23.86,88.9,0,0,2.28,4.29,5.84,12.15v.03c12.26,27.13,39.79,96.41,41.61,176.28Z"/>
          <path class="cls-9" d="M872.93,2080.06l633.25-32.79c-6.8,87.72-64.91,165.44-151.11,194.57-124.67,42.14-287.52,72.31-385.91-7.1-53.42-43.13-81.81-99.68-96.24-154.67Z"/>
          <path class="cls-9" d="M2365.07,1870.73c1.26,56.84-10.47,119.05-49.96,175.18-72.74,103.42-237.6,119.23-369.05,113.02-90.88-4.29-168.14-63.02-198.81-145.48l617.83-142.72Z"/>
          <path class="cls-3" d="M2317.62,1682.27s2.28,4.29,5.84,12.15v.03s-486.82,104.16-486.82,104.16c-69.99,14.97-141.34,21.61-212.9,23.01-8.72.17-17.41.86-26.02,2.07-8.62,1.21-17.16,2.93-25.59,5.17-69.18,18.35-139.61,31.6-211.01,36.46l-496.69,33.81v-.03c1.25-8.53,2.26-13.29,2.26-13.29,0,0-62.21-53.84-1.52-92.04,102.56-64.5,449.92-118.52,611.84,7.58,64.2-54.37,153.94-66.96,230.62-32.35,120.97-165.79,469.79-209.43,586.14-175.64,68.89,20.02,23.86,88.9,23.86,88.9Z"/>
          <path class="cls-8" d="M1441.38,2007.44c10.69,76.2-34.2,149.32-106.77,173.86-50.06,16.93-96.87,28.5-139.18,34.43-83.7,11.74-146.33,1.39-186.14-30.74-117.31-94.7-81.96-270.93-80.01-286.24.07-.62.17-1.31.27-2.01,5.42-35.19,29.42-64.69,62.39-78.06,20.64-8.38,47.94-16.6,82.53-21.45,84.81-11.9,188.76-12.67,272.31,11.1,42.21,12.02,73.37,47.79,79.47,91.27l15.13,107.84Z"/>
          <path class="cls-1" d="M1133.58,2297.81c-64.36,0-125.57-14.09-173.04-52.4-141.21-113.99-115.85-313.1-108.7-354.89-9.97-10.43-28.86-33.96-26.84-60.61,1.43-18.86,12.48-34.92,32.84-47.74,57.42-36.11,174.08-64.15,290.3-69.78,80.9-3.9,229.02.49,328.52,71.61,64.34-49.39,151.04-61.56,226.48-31.77,76.09-95.75,217.28-140.74,296.13-159.24,113.29-26.57,233.17-31.72,298.3-12.8,23.12,6.72,38.16,19.12,44.73,36.86,9.28,25.06-2.43,52.88-9.14,65.66,18.39,38.23,97.57,222.66-6.85,371.1-76.97,109.45-249.62,125-380.93,118.83-113.75-5.36-207.82-91.38-223.7-204.52l-16.51-117.69c-33.43-13.63-69.77-18.17-105.57-13.15-35.8,5.02-69.48,19.39-97.87,41.69l16.51,117.69c15.87,113.14-50.91,221.72-158.79,258.18-67.75,22.9-149.06,42.97-225.88,42.97ZM1191.56,1739.07c-132.88,0-264.67,32.1-319.09,66.32-12.74,8.02-19.32,16.7-20.09,26.52-1.4,17.78,16.35,37.46,23.31,43.55,3.73,3.26,5.44,8.31,4.43,13.16-.46,2.2-44.14,220.96,97.67,335.43,94.42,76.22,254.9,44.67,372.89,4.78,95.4-32.24,154.45-128.28,140.41-228.37l-17.58-125.34c-.65-4.67,1.13-9.34,4.73-12.38,33.52-28.35,74.17-46.55,117.59-52.64,43.38-6.09,87.51.22,127.53,18.25,4.3,1.94,7.3,5.94,7.95,10.6l17.58,125.34c14.04,100.09,97.24,176.17,197.82,180.92,124.44,5.89,287.38-7.94,357.19-107.2,104.86-149.07,2.64-347.37,1.6-349.36-2.31-4.4-2.07-9.71.63-13.87h0c5.02-7.76,16.67-31.57,10.44-48.27-3.45-9.23-12.16-15.77-26.63-19.97-109.97-31.94-454.19,10.17-571.23,170.55-3.83,5.25-10.82,7.08-16.73,4.42-71.46-32.25-156.28-20.35-216.11,30.32-4.96,4.2-12.18,4.34-17.3.35-68.7-53.5-173.19-73.11-277.01-73.11ZM1133.23,2234.13c-56.41,0-100.84-12.86-132.55-38.46-101.82-82.19-97.29-220.16-85.54-295.09.25-1.6.44-2.8.54-3.56.07-.59.18-1.39.29-2.19,6.1-39.63,33.23-73.62,70.82-88.86,25.69-10.43,54.56-17.95,85.78-22.33,101.13-14.18,202.44-9.99,277.97,11.49,47.4,13.5,82.45,53.75,89.3,102.56l15.13,107.84c11.61,82.74-37.17,162.12-115.97,188.76-50.8,17.18-98.46,28.96-141.67,35.02-22.84,3.2-44.22,4.8-64.11,4.8ZM1189.77,1802.78c-36.74,0-75.04,2.66-113.38,8.04-28.99,4.06-55.66,10.99-79.27,20.58-28.69,11.63-49.38,37.47-53.99,67.44l-.2,1.52c-.14,1.06-.36,2.52-.67,4.48-10.84,69.08-15.42,195.95,75.66,269.48,36.74,29.66,95.82,39.03,175.62,27.83,41.51-5.82,87.5-17.21,136.68-33.84,66.31-22.42,107.35-89.27,97.58-158.96l-15.13-107.84c-5.34-38.06-32.68-69.45-69.64-79.98-43.66-12.42-96.61-18.75-153.26-18.75ZM1994.46,2109.92c-14.94,0-30.29-.37-46.04-1.12-83.09-3.93-151.82-66.83-163.43-149.57l-15.13-107.84c-6.85-48.81,15.78-97.15,57.64-123.17,66.7-41.45,162.95-73.35,264.08-87.54,31.21-4.38,61.04-5.1,88.64-2.14,40.31,4.31,75.73,29.52,92.43,65.79.45,1,.76,1.71,1.03,2.35.23.54.75,1.64,1.43,3.11,31.91,68.8,74.22,200.21-1.04,307.23h0c-31.71,45.09-92.2,74.18-179.81,86.47-30.5,4.28-63.93,6.43-99.8,6.43ZM2145.86,1664.2c-16.21,0-33.09,1.22-50.48,3.66-97.48,13.67-189.84,44.17-253.41,83.67-32.64,20.29-50.28,57.99-44.94,96.05l15.13,107.84c9.78,69.68,67.62,122.66,137.55,125.97,51.85,2.46,99.21.75,140.72-5.08,79.79-11.19,134.01-36.45,161.17-75.08h0c67.34-95.75,28.02-216.46-1.41-279.9-.83-1.8-1.46-3.14-1.82-4l-.7-1.6c-12.65-27.46-39.63-46.61-70.39-49.9-10.14-1.09-20.64-1.63-31.43-1.63Z"/>
          <path class="cls-1" d="M1426.25,1899.6l15.13,107.84c10.69,76.2-34.2,149.32-106.77,173.86-42.64,14.4-82.91,24.96-120.04,31.43-6.49,1.14-12.87,2.13-19.13,3.01-54.43,7.64-99.97,5.93-136.1-5.04-19.41-5.89-36.13-14.45-50.04-25.7-.73-.58-1.42-1.16-2.12-1.77-38.33-31.73-59.96-72.29-71.71-112.81-23.41-80.84-7.46-161.51-6.17-171.66.07-.62.17-1.31.27-2.01,5.42-35.19,29.42-64.69,62.39-78.06,20.64-8.38,47.94-16.6,82.53-21.45,22.91-3.21,47.22-5.62,72.18-6.93,50.06-2.67,102.63-.98,151.37,7.16,16.79,2.84,33.13,6.42,48.76,10.87,4.3,1.24,8.51,2.71,12.56,4.43,35.75,14.96,61.43,47.78,66.91,86.83Z"/>
          <g class="cls-4">
            <path class="cls-6" d="M1298.02,1797.46l-290.84,385.76c-38.33-31.73-59.96-72.29-71.71-112.81l211.19-280.11c50.06-2.67,102.63-.98,151.37,7.16Z"/>
          </g>
          <g class="cls-4">
            <path class="cls-6" d="M1426.25,1899.6l3.83,27.28-215.52,285.85c-6.49,1.14-12.87,2.13-19.13,3.01-54.43,7.64-99.97,5.93-136.1-5.04l300.01-397.93c35.75,14.96,61.43,47.78,66.91,86.83Z"/>
          </g>
          <path class="cls-1" d="M1133.23,2234.13c-56.41,0-100.84-12.86-132.55-38.46-101.82-82.19-97.29-220.16-85.54-295.09.25-1.6.44-2.8.54-3.56.07-.59.18-1.39.29-2.19,6.1-39.63,33.23-73.62,70.82-88.86,25.69-10.43,54.56-17.95,85.78-22.33,101.12-14.18,202.43-10,277.97,11.49,47.4,13.5,82.45,53.75,89.3,102.56h0l15.13,107.84c11.61,82.74-37.17,162.12-115.97,188.76-50.8,17.18-98.46,28.96-141.67,35.02-22.84,3.2-44.22,4.8-64.11,4.8ZM1189.77,1802.78c-36.74,0-75.04,2.66-113.38,8.04-28.99,4.06-55.66,10.99-79.27,20.58-28.69,11.63-49.37,37.47-53.99,67.44l-.2,1.52c-.14,1.06-.36,2.52-.67,4.48-10.84,69.08-15.42,195.95,75.66,269.48,36.74,29.66,95.82,39.03,175.62,27.83,41.51-5.82,87.5-17.21,136.68-33.84,66.31-22.42,107.35-89.27,97.58-158.96l-15.13-107.84c-5.34-38.06-32.68-69.45-69.64-79.98-43.66-12.42-96.61-18.75-153.26-18.75Z"/>
          <g>
            <path class="cls-1" d="M1784.24,1849.38l15.13,107.84c10.69,76.2,73.96,134.15,150.49,137.77,44.95,2.11,86.58,1.18,124.06-2.82,6.55-.69,12.95-1.49,19.22-2.37,54.43-7.64,97.74-21.81,129.46-42.3,17.04-11.01,30.76-23.84,41.03-38.48.54-.75,1.05-1.5,1.55-2.28,28.12-41.05,37.76-86,37.9-128.19.26-84.16-37.27-157.33-41.3-166.74-.24-.58-.53-1.22-.81-1.85-14.89-32.34-46.08-54.1-81.46-57.88-22.15-2.38-50.66-2.77-85.25,2.09-22.91,3.21-46.95,7.59-71.3,13.2-48.86,11.21-98.94,27.3-143.55,48.53-15.36,7.35-30.09,15.29-43.89,23.87-3.8,2.37-7.44,4.95-10.86,7.72-30.26,24.22-45.91,62.84-40.43,101.89Z"/>
            <g class="cls-4">
              <path class="cls-6" d="M1879.42,1715.9l385.76,290.84c28.12-41.05,37.76-86,37.9-128.19l-280.11-211.19c-48.86,11.21-98.94,27.3-143.55,48.53Z"/>
            </g>
            <g class="cls-4">
              <path class="cls-6" d="M1784.24,1849.38l3.83,27.28,285.85,215.52c6.55-.69,12.95-1.49,19.22-2.37,54.43-7.64,97.74-21.81,129.46-42.3l-397.93-300.01c-30.26,24.22-45.91,62.84-40.43,101.89Z"/>
            </g>
            <path class="cls-10" d="M1995.23,2109.81c-14.93,0-30.28-.37-46.03-1.12-83.09-3.93-151.82-66.84-163.43-149.57l-15.13-107.84h0c-6.85-48.81,15.78-97.16,57.64-123.17,66.7-41.45,162.95-73.35,264.08-87.54,31.23-4.38,61.04-5.1,88.61-2.14,40.32,4.31,75.76,29.52,92.46,65.78.42.92.75,1.68,1.03,2.37.22.52.74,1.62,1.43,3.09,31.91,68.8,74.22,200.21-1.04,307.23-31.71,45.09-92.2,74.18-179.81,86.47-30.51,4.28-63.94,6.43-99.81,6.43ZM1797.83,1847.47l15.13,107.84c9.78,69.68,67.62,122.66,137.55,125.97,51.87,2.46,99.21.75,140.73-5.08,79.78-11.19,134.01-36.45,161.17-75.08,67.34-95.75,28.02-216.46-1.41-279.9-.83-1.8-1.45-3.14-1.82-4l-.74-1.69c-12.61-27.37-39.61-46.52-70.39-49.81-25.34-2.72-52.88-2.04-81.88,2.03-97.47,13.67-189.83,44.17-253.4,83.67-32.64,20.28-50.28,57.99-44.94,96.05h0Z"/>
          </g>
          <path class="cls-1" d="M1994.46,2109.92c-14.94,0-30.29-.37-46.04-1.12-83.09-3.93-151.82-66.83-163.43-149.57l-15.13-107.84c-6.85-48.81,15.78-97.15,57.64-123.17,66.7-41.45,162.95-73.35,264.08-87.54,31.21-4.38,61.04-5.1,88.64-2.14,40.31,4.31,75.73,29.52,92.43,65.79.45,1,.76,1.71,1.03,2.35.23.53.75,1.64,1.43,3.11,31.91,68.8,74.22,200.21-1.04,307.23h0c-31.71,45.09-92.2,74.18-179.81,86.47-30.5,4.28-63.93,6.43-99.8,6.43ZM2145.86,1664.2c-16.21,0-33.09,1.22-50.48,3.66-97.48,13.67-189.84,44.17-253.41,83.67-32.64,20.29-50.28,57.99-44.94,96.05l15.13,107.84c9.78,69.69,67.62,122.66,137.55,125.97,51.86,2.46,99.2.75,140.72-5.08,79.79-11.19,134.01-36.45,161.17-75.08h0c67.34-95.75,28.02-216.46-1.41-279.9-.83-1.8-1.46-3.14-1.82-4l-.7-1.6c-12.65-27.46-39.63-46.61-70.39-49.9-10.14-1.09-20.64-1.63-31.43-1.63Z"/>
        </g>
        <path class="cls-1" d="M966.74,2572.23l-53.81,4.03c-22.53,1.69-40.43,19.59-42.12,42.12l-4.03,53.81-4.03-53.81c-1.69-22.53-19.59-40.43-42.12-42.12l-53.81-4.03,53.81-4.03c22.53-1.69,40.43-19.59,42.12-42.12l4.03-53.81,4.03,53.81c1.69,22.53,19.59,40.43,42.12,42.12l53.81,4.03Z"/>
        <path class="cls-1" d="M2611.45,1407.07l-61.64,4.62c-25.8,1.93-46.31,22.44-48.25,48.25l-4.62,61.64-4.62-61.64c-1.93-25.8-22.44-46.31-48.25-48.25l-61.64-4.62,61.64-4.62c25.8-1.93,46.31-22.44,48.25-48.25l4.62-61.64,4.62,61.64c1.93,25.8,22.44,46.31,48.25,48.25l61.64,4.62Z"/>
        <path class="cls-1" d="M790.58,1723.9l-33.22,2.49c-13.91,1.04-24.96,12.1-26,26l-2.49,33.22-2.49-33.22c-1.04-13.91-12.1-24.96-26-26l-33.22-2.49,33.22-2.49c13.91-1.04,24.96-12.1,26-26l2.49-33.22,2.49,33.22c1.04,13.91,12.1,24.96,26,26l33.22,2.49Z"/>
      </g>
    </g>
  </g>
</svg>